<svg viewBox="0 0 64 64" fill="none" xmlns="http://www.w3.org/2000/svg"><circle cx="32" cy="12" r="4" stroke="#f22f46" stroke-width="2"/><circle cx="32" cy="52" r="4" stroke="#f22f46" stroke-width="2"/><circle cx="12" cy="32" r="4" stroke="#f22f46" stroke-width="2"/><circle cx="52" cy="32" r="4" stroke="#f22f46" stroke-width="2"/><circle cx="32" cy="32" r="8" stroke="#f22f46" stroke-width="2"/><path d="M12 32h12M40 32h12M32 12v12M32 40v12" stroke="#f22f46" stroke-width="2" stroke-linecap="round"/><path d="M32.6 26h.01l.01.001.05.003.007.001h.006l.023.006.031.005.01.003h.007l.017.007.031.009.012.005.009.003.016.008.024.01.013.007.013.006.014.01.019.01.02.014.01.007.009.007.014.01.023.02.013.01.005.007.008.007.022.024.015.017.004.005a.59.59 0 0 1 .13.308l.001.007.002.025.002.038v3.6h3a.6.6 0 0 1 .52.898l-.035.055-4.8 6.6c-.341.47-1.085.228-1.085-.353v-3.6h-3a.6.6 0 0 1-.52-.898l.035-.055 4.8-6.6.006-.008.011-.014.02-.023.01-.013.006-.005.008-.008.024-.022.017-.015.004-.004a.6.6 0 0 1 .242-.12h.006l.016-.003.045-.008h.006l.025-.002z" fill="#f22f46"/></svg>